<?xml version="1.0" encoding="utf-8"?>
<svg xmlns="http://www.w3.org/2000/svg" width="5270" height="1711" viewBox="0 0 5270 1711" fill="none">
<path d="M1387.64 998.115V1105.55C1366.68 1109.58 1345.69 1112.58 1312.74 1112.58C1242.84 1112.58 1197.87 1083.45 1197.87 993.087V372.49H1325.72V959.96C1325.72 988.094 1335.72 998.115 1363.67 998.115H1387.64Z" fill="#502896"/>
<path d="M3115.83 822.39V852.521C3115.83 1003.18 3032.94 1117.64 2854.13 1117.64C2675.31 1117.64 2591.44 1003.14 2591.44 852.521V822.39C2591.44 671.769 2674.35 557.271 2854.13 557.271C3033.9 557.271 3115.83 671.769 3115.83 822.39ZM2854.16 1007.17C2944.07 1007.17 2983.01 964.988 2983.01 867.57V807.308C2983.01 709.889 2944.07 667.706 2854.16 667.706C2764.26 667.706 2724.32 709.889 2724.32 807.308V867.57C2724.32 964.988 2763.3 1007.17 2854.16 1007.17Z" fill="#502896"/>
<path d="M4389.52 822.39V852.521C4389.52 1003.18 4306.64 1117.64 4127.82 1117.64C3949.01 1117.64 3865.13 1003.14 3865.13 852.521V822.39C3865.13 671.769 3948.05 557.271 4127.82 557.271C4307.6 557.271 4389.52 671.769 4389.52 822.39ZM4127.82 1007.17C4217.73 1007.17 4256.67 964.988 4256.67 867.57V807.308C4256.67 709.889 4217.73 667.706 4127.82 667.706C4037.92 667.706 3997.98 709.889 3997.98 807.308V867.57C3997.98 964.988 4036.96 1007.17 4127.82 1007.17Z" fill="#502896"/>
<path d="M5268.15 747.045V1105.55H5140.3V786.199C5140.3 696.804 5105.33 671.7 5032.41 671.7C4959.5 671.7 4918.53 696.804 4918.53 786.199V1105.55H4790.68V786.199C4790.68 696.804 4755.71 671.7 4682.8 671.7C4609.88 671.7 4568.92 696.804 4568.92 786.199V1105.55H4441.07V569.289H4568.92V621.769H4575.91C4602.82 582.443 4643.62 554.137 4743.69 557.236C4829.52 559.888 4878.29 592.877 4913.5 658.89H4920.49C4947.44 600.109 5009.57 553.586 5093.27 557.236C5202.05 561.954 5268.08 608.442 5268.08 747.045H5268.15Z" fill="#502896"/>
<path d="M1823.81 569.323V615.26H1817.64C1780.28 578.759 1728.15 557.271 1660.2 557.271C1502.17 557.271 1429.29 671.769 1429.29 822.39V852.521C1429.29 1003.18 1502.17 1117.64 1660.2 1117.64C1728.15 1117.64 1780.24 1096.19 1817.61 1059.72H1823.84V1105.59H1951.69V569.323H1823.81ZM1823.81 864.574C1823.81 962.991 1788.84 1003.14 1689.96 1003.14C1597.08 1003.14 1562.11 962.956 1562.11 855.517V819.36C1562.11 711.921 1597.08 671.735 1689.96 671.735C1788.84 671.735 1823.81 711.887 1823.81 816.364V864.574Z" fill="#502896"/>
<path d="M2406.52 372.49V615.226H2400.36C2362.99 578.724 2310.87 557.236 2242.91 557.236C2084.89 557.236 2012.01 671.735 2012.01 822.356V852.487C2012.01 1003.14 2084.89 1117.61 2242.91 1117.61C2310.87 1117.61 2362.96 1096.15 2400.32 1059.69H2406.56V1105.55H2534.41V372.49H2406.52ZM2406.52 864.574C2406.52 962.991 2371.55 1003.14 2272.68 1003.14C2179.79 1003.14 2144.82 962.956 2144.82 855.517V819.36C2144.82 711.921 2179.79 671.735 2272.68 671.735C2371.55 671.735 2406.52 711.887 2406.52 816.364V864.574Z" fill="#502896"/>
<path d="M3598.05 557.271C3530.07 557.271 3477.94 578.759 3440.61 615.26H3434.45V372.524H3306.59V1105.62H3434.45V1059.75H3440.68C3478.05 1096.22 3530.14 1117.68 3598.09 1117.68C3756.12 1117.68 3829 1003.18 3829 852.556V822.425C3829 671.803 3756.12 557.305 3598.09 557.305L3598.05 557.271ZM3696.11 855.517C3696.11 962.956 3661.14 1003.14 3568.26 1003.14C3469.38 1003.14 3434.41 962.956 3434.41 864.574V816.364C3434.41 711.921 3469.38 671.735 3568.26 671.735C3661.14 671.735 3696.11 711.887 3696.11 819.36V855.517Z" fill="#502896"/>
<path d="M745.127 1291.92L506.478 1153.38L326.532 1258.45C306.805 1269.98 282.077 1255.66 282.077 1232.72V466.671L44.4213 328.722C24.6937 317.255 0 331.58 0 354.514V1023.87C0 1124.94 53.6343 1218.3 140.696 1268.81L478.599 1464.68C496.957 1475.32 519.595 1475.29 537.919 1464.58L745.195 1343.47C764.854 1331.97 764.82 1303.39 745.127 1291.95V1291.92Z" fill="#502896"/>
<path d="M170.287 180.683L408.936 319.218L588.882 214.155C608.609 202.619 633.337 216.944 633.337 239.878V1005.93L870.993 1143.88C890.72 1155.35 915.414 1141.02 915.414 1118.09V448.73C915.414 347.662 861.78 254.307 774.718 203.79L436.781 7.9547C418.423 -2.68589 395.784 -2.65146 377.461 8.05801L170.185 129.168C150.525 140.669 150.56 169.251 170.253 180.683H170.287Z" fill="#502896"/>
<path d="M3495.31 1495.81C3495.31 1483 3490.44 1472.57 3480.75 1464.48C3471.06 1456.38 3452.67 1449.29 3425.64 1443.19C3388.21 1435.1 3359.44 1423.77 3339.37 1409.21C3319.27 1394.64 3309.23 1375.12 3309.23 1350.7C3309.23 1324.7 3320.26 1302.42 3342.32 1283.9C3364.37 1265.37 3392.94 1256.11 3428.01 1256.11C3463.08 1256.11 3493.25 1265.95 3515.62 1285.65C3537.95 1305.35 3548.63 1328.32 3547.67 1354.52L3547.09 1356.31H3491.81C3491.81 1342.54 3485.79 1330 3473.73 1318.78C3461.67 1307.55 3446.43 1301.94 3428.01 1301.94C3407.63 1301.94 3392.39 1306.55 3382.28 1315.82C3372.18 1325.08 3367.15 1336.1 3367.15 1348.91C3367.15 1361.72 3371.5 1371.26 3380.23 1378.18C3388.96 1385.07 3406.94 1391.37 3434.17 1397.09C3473.18 1405.35 3502.77 1417.09 3522.95 1432.24C3543.12 1447.43 3553.22 1467.23 3553.22 1491.65C3553.22 1520.02 3541.82 1543.16 3518.97 1561.1C3496.13 1579.04 3466.3 1588 3429.48 1588C3388.93 1588 3356.97 1577.67 3333.65 1556.97C3310.33 1536.27 3299.26 1512.13 3300.43 1484.55L3301.01 1482.76H3356.29C3357.28 1503.46 3364.92 1518.57 3379.2 1528.11C3393.52 1537.69 3410.27 1542.44 3429.48 1542.44C3450.06 1542.44 3466.16 1538.06 3477.84 1529.28C3489.48 1520.5 3495.34 1509.35 3495.34 1495.74L3495.31 1495.81Z" fill="#502896"/>
<path d="M3732.83 1588.03C3687.17 1588.03 3651.55 1573.36 3625.97 1543.99C3600.38 1514.61 3587.61 1476.01 3587.61 1428.15V1415.13C3587.61 1369.23 3600.79 1331.24 3627.13 1301.18C3653.47 1271.15 3685.66 1256.11 3723.68 1256.11C3766.22 1256.11 3798.1 1269.4 3819.37 1296.02C3840.64 1322.6 3851.26 1358 3851.26 1402.11V1432.86H3647.85L3646.96 1434.34C3646.96 1466.47 3654.02 1492.51 3668.13 1512.51C3682.24 1532.52 3703.78 1542.51 3732.79 1542.51C3752.38 1542.51 3769.57 1539.68 3784.37 1534.07C3799.17 1528.46 3811.84 1520.71 3822.42 1510.86L3845.06 1548.71C3833.69 1559.72 3818.69 1569.06 3800.09 1576.63C3781.46 1584.21 3759.03 1588 3732.79 1588L3732.83 1588.03ZM3723.72 1301.94C3703.54 1301.94 3686.83 1309.76 3673.61 1325.42C3660.39 1341.09 3652.31 1361.13 3649.36 1385.58L3649.94 1387.06H3793.38V1382.35C3793.38 1359.1 3787.69 1339.89 3776.32 1324.7C3764.95 1309.52 3747.42 1301.94 3723.72 1301.94Z" fill="#502896"/>
<path d="M3881.88 1427.84C3881.88 1376.42 3892.8 1334.93 3914.65 1303.42C3936.51 1271.91 3967.02 1256.14 4006.2 1256.14C4026.38 1256.14 4044.12 1260.24 4059.39 1268.4C4074.67 1276.6 4087.51 1288.34 4097.89 1303.73L4104.94 1262.06H4151.08V1583.62C4151.08 1624.6 4139.23 1656.08 4115.49 1678.05C4091.79 1700.02 4057.58 1711 4012.92 1711C3997.64 1711 3981.13 1708.86 3963.39 1704.63C3945.65 1700.39 3930.03 1694.64 3916.5 1687.34L3925.31 1642.13C3936.47 1648.05 3949.93 1652.8 3965.72 1656.45C3981.51 1660.1 3997.02 1661.93 4012.3 1661.93C4040.52 1661.93 4061.04 1655.49 4073.88 1642.58C4086.72 1629.66 4093.13 1610 4093.13 1583.62V1547.26C4082.75 1560.65 4070.28 1570.81 4055.8 1577.7C4041.31 1584.59 4024.53 1588.03 4005.52 1588.03C3966.71 1588.03 3936.4 1573.88 3914.55 1545.61C3892.7 1517.33 3881.78 1480.14 3881.78 1434.03V1427.84H3881.88ZM3939.79 1434.07C3939.79 1466.2 3946.37 1491.99 3959.49 1511.51C3972.6 1531.01 3992.88 1540.79 4020.35 1540.79C4037.78 1540.79 4052.41 1536.79 4064.15 1528.8C4075.9 1520.81 4085.63 1509.55 4093.26 1494.95V1347.77C4085.8 1334.17 4076.11 1323.39 4064.15 1315.4C4052.2 1307.42 4037.78 1303.42 4020.93 1303.42C3993.29 1303.42 3972.88 1314.96 3959.66 1337.99C3946.44 1361.03 3939.83 1390.99 3939.83 1427.84V1434.03L3939.79 1434.07Z" fill="#502896"/>
<path d="M4412.19 1534.55C4402.19 1551.7 4389.35 1564.89 4373.7 1574.15C4358.01 1583.42 4339.89 1588.03 4319.31 1588.03C4284.62 1588.03 4257.59 1576.91 4238.17 1554.63C4218.79 1532.35 4209.06 1497.67 4209.06 1450.6V1262.03H4266.98V1451.18C4266.98 1485.27 4271.98 1508.73 4281.98 1521.54C4291.98 1534.35 4307.56 1540.75 4328.73 1540.75C4349.89 1540.75 4366.3 1536.58 4379.73 1528.18C4393.15 1519.81 4403.29 1507.93 4410.14 1492.58V1262.06H4468.05V1581.83H4416.03L4412.19 1534.55Z" fill="#502896"/>
<path d="M4678.82 1313.48L4649.13 1311.72C4633.85 1311.72 4620.94 1315.37 4610.46 1322.67C4599.98 1329.97 4591.9 1340.2 4586.21 1353.42V1581.87H4528.3V1262.1H4580.05L4585.63 1308.79C4594.64 1292.23 4605.77 1279.35 4618.99 1270.09C4632.21 1260.82 4647.45 1256.21 4664.71 1256.21C4669.03 1256.21 4673.14 1256.55 4677.04 1257.24C4680.95 1257.93 4684.2 1258.69 4686.74 1259.45L4678.79 1313.54L4678.82 1313.48Z" fill="#502896"/>
<path d="M4695.61 1418.99C4695.61 1371.71 4708.35 1332.73 4733.83 1302.11C4759.31 1271.46 4793.9 1256.14 4837.6 1256.14C4881.31 1256.14 4916.51 1271.4 4942.1 1301.94C4967.68 1332.48 4980.46 1371.5 4980.46 1418.99V1425.49C4980.46 1473.19 4967.72 1512.2 4942.24 1542.54C4916.75 1572.88 4882.06 1588.07 4838.19 1588.07C4794.31 1588.07 4759.55 1572.84 4733.97 1542.4C4708.38 1511.96 4695.61 1473.02 4695.61 1425.53V1418.99ZM4753.52 1425.49C4753.52 1459.38 4760.61 1487.38 4774.82 1509.41C4789.04 1531.49 4810.14 1542.51 4838.19 1542.51C4866.24 1542.51 4886.79 1531.49 4901.1 1509.41C4915.42 1487.34 4922.58 1459.38 4922.58 1425.49V1418.99C4922.58 1385.48 4915.38 1357.62 4900.96 1335.34C4886.55 1313.06 4865.45 1301.94 4837.6 1301.94C4809.76 1301.94 4789.04 1313.06 4774.86 1335.34C4760.65 1357.62 4753.56 1385.48 4753.56 1418.99V1425.49H4753.52Z" fill="#502896"/>
<path d="M5212.08 1495.81C5212.08 1483 5207.22 1472.57 5197.53 1464.48C5187.84 1456.38 5169.44 1449.29 5142.42 1443.19C5104.99 1435.1 5076.22 1423.77 5056.15 1409.21C5036.04 1394.64 5026.01 1375.12 5026.01 1350.7C5026.01 1324.7 5037.04 1302.42 5059.09 1283.9C5081.15 1265.37 5109.71 1256.11 5144.78 1256.11C5179.86 1256.11 5210.03 1265.95 5232.39 1285.65C5254.73 1305.35 5265.41 1328.32 5264.45 1354.52L5263.87 1356.31H5208.59C5208.59 1342.54 5202.56 1330 5190.51 1318.78C5178.45 1307.55 5163.21 1301.94 5144.78 1301.94C5124.41 1301.94 5109.17 1306.55 5099.06 1315.82C5088.96 1325.08 5083.92 1336.1 5083.92 1348.91C5083.92 1361.72 5088.27 1371.26 5097.01 1378.18C5105.74 1385.07 5123.72 1391.37 5150.95 1397.09C5189.96 1405.35 5219.55 1417.09 5239.72 1432.24C5259.9 1447.43 5270 1467.23 5270 1491.65C5270 1520.02 5258.6 1543.16 5235.75 1561.1C5212.91 1579.04 5183.08 1588 5146.26 1588C5105.71 1588 5073.75 1577.67 5050.43 1556.97C5027.1 1536.27 5016.04 1512.13 5017.21 1484.55L5017.79 1482.76H5073.07C5074.06 1503.46 5081.7 1518.57 5095.98 1528.11C5110.3 1537.69 5127.04 1542.44 5146.26 1542.44C5166.84 1542.44 5182.94 1538.06 5194.62 1529.28C5206.26 1520.5 5212.12 1509.35 5212.12 1495.74L5212.08 1495.81Z" fill="#502896"/>
</svg>